<mxfile host="Electron" agent="Mozilla/5.0 (Windows NT 10.0; Win64; x64) AppleWebKit/537.36 (KHTML, like Gecko) draw.io/25.0.2 Chrome/128.0.6613.186 Electron/32.2.5 Safari/537.36" version="25.0.2">
  <diagram id="prtHgNgQTEPvFCAcTncT" name="Page-1">
    <mxGraphModel dx="8104" dy="4274" grid="1" gridSize="10" guides="1" tooltips="1" connect="1" arrows="1" fold="1" page="1" pageScale="1" pageWidth="827" pageHeight="1169" math="0" shadow="0">
      <root>
        <mxCell id="0" />
        <mxCell id="1" parent="0" />
        <mxCell id="mP5TZMLMc9r4H7aM5vnd-12" value="GAIA" style="rounded=0;whiteSpace=wrap;html=1;" parent="1" vertex="1">
          <mxGeometry x="-660" y="-490" width="120" height="40" as="geometry" />
        </mxCell>
        <mxCell id="mP5TZMLMc9r4H7aM5vnd-13" value="Recherche" style="rounded=0;whiteSpace=wrap;html=1;" parent="1" vertex="1">
          <mxGeometry x="-1180" y="-410" width="120" height="40" as="geometry" />
        </mxCell>
        <mxCell id="mP5TZMLMc9r4H7aM5vnd-14" value="Developpement" style="rounded=0;whiteSpace=wrap;html=1;" parent="1" vertex="1">
          <mxGeometry x="20" y="-410" width="120" height="40" as="geometry" />
        </mxCell>
        <mxCell id="mP5TZMLMc9r4H7aM5vnd-16" value="Technologie de dev" style="rounded=0;whiteSpace=wrap;html=1;" parent="1" vertex="1">
          <mxGeometry x="-1420" y="-330" width="120" height="40" as="geometry" />
        </mxCell>
        <mxCell id="mP5TZMLMc9r4H7aM5vnd-17" value="Technologie existante" style="rounded=0;whiteSpace=wrap;html=1;" parent="1" vertex="1">
          <mxGeometry x="-1580" y="-330" width="120" height="40" as="geometry" />
        </mxCell>
        <mxCell id="mP5TZMLMc9r4H7aM5vnd-18" value="Data-set" style="rounded=0;whiteSpace=wrap;html=1;" parent="1" vertex="1">
          <mxGeometry x="-1260" y="-330" width="120" height="40" as="geometry" />
        </mxCell>
        <mxCell id="mP5TZMLMc9r4H7aM5vnd-19" value="Modele IA scan" style="rounded=0;whiteSpace=wrap;html=1;" parent="1" vertex="1">
          <mxGeometry x="-1100" y="-330" width="120" height="40" as="geometry" />
        </mxCell>
        <mxCell id="mP5TZMLMc9r4H7aM5vnd-20" value="Modele IA Profilage" style="rounded=0;whiteSpace=wrap;html=1;" parent="1" vertex="1">
          <mxGeometry x="-940" y="-330" width="120" height="40" as="geometry" />
        </mxCell>
        <mxCell id="mP5TZMLMc9r4H7aM5vnd-21" value="Documentation" style="rounded=0;whiteSpace=wrap;html=1;" parent="1" vertex="1">
          <mxGeometry x="-780" y="-330" width="120" height="40" as="geometry" />
        </mxCell>
        <mxCell id="mP5TZMLMc9r4H7aM5vnd-22" value="Scan des tableaux" style="rounded=0;whiteSpace=wrap;html=1;" parent="1" vertex="1">
          <mxGeometry x="-540" y="-330" width="120" height="40" as="geometry" />
        </mxCell>
        <mxCell id="mP5TZMLMc9r4H7aM5vnd-23" value="Affichage des descriptions" style="rounded=0;whiteSpace=wrap;html=1;" parent="1" vertex="1">
          <mxGeometry x="-380" y="-330" width="120" height="40" as="geometry" />
        </mxCell>
        <mxCell id="mP5TZMLMc9r4H7aM5vnd-24" value="Elaboration Profilage" style="rounded=0;whiteSpace=wrap;html=1;" parent="1" vertex="1">
          <mxGeometry x="-220" y="-330" width="120" height="40" as="geometry" />
        </mxCell>
        <mxCell id="mP5TZMLMc9r4H7aM5vnd-25" value="Artedex" style="rounded=0;whiteSpace=wrap;html=1;" parent="1" vertex="1">
          <mxGeometry x="-60" y="-330" width="120" height="40" as="geometry" />
        </mxCell>
        <mxCell id="mP5TZMLMc9r4H7aM5vnd-26" value="Localisation" style="rounded=0;whiteSpace=wrap;html=1;" parent="1" vertex="1">
          <mxGeometry x="100" y="-330" width="120" height="40" as="geometry" />
        </mxCell>
        <mxCell id="mP5TZMLMc9r4H7aM5vnd-27" value="Communauté" style="rounded=0;whiteSpace=wrap;html=1;" parent="1" vertex="1">
          <mxGeometry x="260" y="-330" width="120" height="40" as="geometry" />
        </mxCell>
        <mxCell id="mP5TZMLMc9r4H7aM5vnd-28" value="Guide Musée partenaire" style="rounded=0;whiteSpace=wrap;html=1;" parent="1" vertex="1">
          <mxGeometry x="420" y="-330" width="120" height="40" as="geometry" />
        </mxCell>
        <mxCell id="mP5TZMLMc9r4H7aM5vnd-29" value="Gamification avancé" style="rounded=0;whiteSpace=wrap;html=1;" parent="1" vertex="1">
          <mxGeometry x="580" y="-330" width="120" height="40" as="geometry" />
        </mxCell>
        <mxCell id="mP5TZMLMc9r4H7aM5vnd-31" value="Flutter" style="rounded=0;whiteSpace=wrap;html=1;" parent="1" vertex="1">
          <mxGeometry x="-1400" y="-270" width="120" height="30" as="geometry" />
        </mxCell>
        <mxCell id="mP5TZMLMc9r4H7aM5vnd-32" value="ReactNative" style="rounded=0;whiteSpace=wrap;html=1;" parent="1" vertex="1">
          <mxGeometry x="-1400" y="-220" width="120" height="30" as="geometry" />
        </mxCell>
        <mxCell id="mP5TZMLMc9r4H7aM5vnd-33" value="Smartify" style="rounded=0;whiteSpace=wrap;html=1;" parent="1" vertex="1">
          <mxGeometry x="-1560" y="-270" width="120" height="30" as="geometry" />
        </mxCell>
        <mxCell id="mP5TZMLMc9r4H7aM5vnd-34" value="Artivive" style="rounded=0;whiteSpace=wrap;html=1;" parent="1" vertex="1">
          <mxGeometry x="-1560" y="-220" width="120" height="30" as="geometry" />
        </mxCell>
        <mxCell id="mP5TZMLMc9r4H7aM5vnd-35" value="WikiArt Full" style="rounded=0;whiteSpace=wrap;html=1;" parent="1" vertex="1">
          <mxGeometry x="-1240" y="-270" width="120" height="30" as="geometry" />
        </mxCell>
        <mxCell id="mP5TZMLMc9r4H7aM5vnd-36" value="WikiArt" style="rounded=0;whiteSpace=wrap;html=1;" parent="1" vertex="1">
          <mxGeometry x="-1240" y="-220" width="120" height="30" as="geometry" />
        </mxCell>
        <mxCell id="mP5TZMLMc9r4H7aM5vnd-37" value="Base Joconde" style="rounded=0;whiteSpace=wrap;html=1;" parent="1" vertex="1">
          <mxGeometry x="-1240" y="-170" width="120" height="30" as="geometry" />
        </mxCell>
        <mxCell id="mP5TZMLMc9r4H7aM5vnd-38" value="Resnet18" style="rounded=0;whiteSpace=wrap;html=1;" parent="1" vertex="1">
          <mxGeometry x="-1080" y="-270" width="120" height="30" as="geometry" />
        </mxCell>
        <mxCell id="mP5TZMLMc9r4H7aM5vnd-39" value="ModelNetV2" style="rounded=0;whiteSpace=wrap;html=1;" parent="1" vertex="1">
          <mxGeometry x="-1080" y="-220" width="120" height="30" as="geometry" />
        </mxCell>
        <mxCell id="mP5TZMLMc9r4H7aM5vnd-40" value="OBS" style="rounded=0;whiteSpace=wrap;html=1;" parent="1" vertex="1">
          <mxGeometry x="-760" y="-270" width="120" height="30" as="geometry" />
        </mxCell>
        <mxCell id="mP5TZMLMc9r4H7aM5vnd-41" value="WBS" style="rounded=0;whiteSpace=wrap;html=1;" parent="1" vertex="1">
          <mxGeometry x="-760" y="-220" width="120" height="30" as="geometry" />
        </mxCell>
        <mxCell id="mP5TZMLMc9r4H7aM5vnd-42" value="Charte Projet" style="rounded=0;whiteSpace=wrap;html=1;" parent="1" vertex="1">
          <mxGeometry x="-760" y="-120" width="120" height="30" as="geometry" />
        </mxCell>
        <mxCell id="mP5TZMLMc9r4H7aM5vnd-43" value="RACI" style="rounded=0;whiteSpace=wrap;html=1;" parent="1" vertex="1">
          <mxGeometry x="-760" y="-170" width="120" height="30" as="geometry" />
        </mxCell>
        <mxCell id="mP5TZMLMc9r4H7aM5vnd-44" value="Gantt" style="rounded=0;whiteSpace=wrap;html=1;" parent="1" vertex="1">
          <mxGeometry x="-760" y="-70" width="120" height="30" as="geometry" />
        </mxCell>
        <mxCell id="mP5TZMLMc9r4H7aM5vnd-47" value="Image Dataset" style="rounded=0;whiteSpace=wrap;html=1;" parent="1" vertex="1">
          <mxGeometry x="-520" y="-270" width="120" height="30" as="geometry" />
        </mxCell>
        <mxCell id="mP5TZMLMc9r4H7aM5vnd-48" value="Modele de Reco" style="rounded=0;whiteSpace=wrap;html=1;" parent="1" vertex="1">
          <mxGeometry x="-520" y="-220" width="120" height="30" as="geometry" />
        </mxCell>
        <mxCell id="mP5TZMLMc9r4H7aM5vnd-49" value="Description Dataset" style="rounded=0;whiteSpace=wrap;html=1;" parent="1" vertex="1">
          <mxGeometry x="-360" y="-270" width="120" height="30" as="geometry" />
        </mxCell>
        <mxCell id="mP5TZMLMc9r4H7aM5vnd-51" value="Donnée utilisateur&lt;br&gt;(Favorie, like, vue..)" style="rounded=0;whiteSpace=wrap;html=1;" parent="1" vertex="1">
          <mxGeometry x="-200" y="-270" width="120" height="30" as="geometry" />
        </mxCell>
        <mxCell id="mP5TZMLMc9r4H7aM5vnd-52" value="Modele Profilage" style="rounded=0;whiteSpace=wrap;html=1;" parent="1" vertex="1">
          <mxGeometry x="-200" y="-220" width="120" height="30" as="geometry" />
        </mxCell>
        <mxCell id="mP5TZMLMc9r4H7aM5vnd-53" value="FrontEnd" style="rounded=0;whiteSpace=wrap;html=1;" parent="1" vertex="1">
          <mxGeometry x="-40" y="-270" width="120" height="30" as="geometry" />
        </mxCell>
        <mxCell id="mP5TZMLMc9r4H7aM5vnd-54" value="FrontEnd" style="rounded=0;whiteSpace=wrap;html=1;" parent="1" vertex="1">
          <mxGeometry x="-360" y="-220" width="120" height="30" as="geometry" />
        </mxCell>
        <mxCell id="mP5TZMLMc9r4H7aM5vnd-55" value="Donnée utilisateur&amp;nbsp;&lt;div&gt;(Tableaux scannés)&lt;/div&gt;" style="rounded=0;whiteSpace=wrap;html=1;" parent="1" vertex="1">
          <mxGeometry x="-40" y="-220" width="120" height="30" as="geometry" />
        </mxCell>
        <mxCell id="mP5TZMLMc9r4H7aM5vnd-56" value="" style="rounded=0;whiteSpace=wrap;html=1;" parent="1" vertex="1">
          <mxGeometry x="120" y="-270" width="120" height="30" as="geometry" />
        </mxCell>
        <mxCell id="mP5TZMLMc9r4H7aM5vnd-57" value="" style="rounded=0;whiteSpace=wrap;html=1;" parent="1" vertex="1">
          <mxGeometry x="120" y="-220" width="120" height="30" as="geometry" />
        </mxCell>
        <mxCell id="mP5TZMLMc9r4H7aM5vnd-58" value="" style="rounded=0;whiteSpace=wrap;html=1;" parent="1" vertex="1">
          <mxGeometry x="280" y="-270" width="120" height="30" as="geometry" />
        </mxCell>
        <mxCell id="mP5TZMLMc9r4H7aM5vnd-59" value="" style="rounded=0;whiteSpace=wrap;html=1;" parent="1" vertex="1">
          <mxGeometry x="280" y="-220" width="120" height="30" as="geometry" />
        </mxCell>
        <mxCell id="mP5TZMLMc9r4H7aM5vnd-60" value="" style="rounded=0;whiteSpace=wrap;html=1;" parent="1" vertex="1">
          <mxGeometry x="440" y="-270" width="120" height="30" as="geometry" />
        </mxCell>
        <mxCell id="mP5TZMLMc9r4H7aM5vnd-61" value="" style="rounded=0;whiteSpace=wrap;html=1;" parent="1" vertex="1">
          <mxGeometry x="440" y="-220" width="120" height="30" as="geometry" />
        </mxCell>
        <mxCell id="mP5TZMLMc9r4H7aM5vnd-62" value="Utilisation de point&lt;br&gt;(Gain et dépence)" style="rounded=0;whiteSpace=wrap;html=1;" parent="1" vertex="1">
          <mxGeometry x="600" y="-270" width="120" height="30" as="geometry" />
        </mxCell>
        <mxCell id="mP5TZMLMc9r4H7aM5vnd-63" value="" style="rounded=0;whiteSpace=wrap;html=1;" parent="1" vertex="1">
          <mxGeometry x="600" y="-220" width="120" height="30" as="geometry" />
        </mxCell>
        <mxCell id="mP5TZMLMc9r4H7aM5vnd-64" value="OBS Test" style="swimlane;whiteSpace=wrap;html=1;" parent="1" vertex="1">
          <mxGeometry x="230" y="-1040" width="720" height="340" as="geometry" />
        </mxCell>
        <mxCell id="mP5TZMLMc9r4H7aM5vnd-65" value="GAIA" style="rounded=0;whiteSpace=wrap;html=1;" parent="mP5TZMLMc9r4H7aM5vnd-64" vertex="1">
          <mxGeometry x="300" y="30" width="120" height="40" as="geometry" />
        </mxCell>
        <mxCell id="mP5TZMLMc9r4H7aM5vnd-66" value="Dev IA" style="rounded=0;whiteSpace=wrap;html=1;" parent="mP5TZMLMc9r4H7aM5vnd-64" vertex="1">
          <mxGeometry x="380" y="110" width="120" height="40" as="geometry" />
        </mxCell>
        <mxCell id="mP5TZMLMc9r4H7aM5vnd-67" value="Dev FrontEnd" style="rounded=0;whiteSpace=wrap;html=1;" parent="mP5TZMLMc9r4H7aM5vnd-64" vertex="1">
          <mxGeometry x="210" y="110" width="120" height="40" as="geometry" />
        </mxCell>
        <mxCell id="mP5TZMLMc9r4H7aM5vnd-68" value="Dev BackEnd" style="rounded=0;whiteSpace=wrap;html=1;" parent="mP5TZMLMc9r4H7aM5vnd-64" vertex="1">
          <mxGeometry x="50" y="110" width="120" height="40" as="geometry" />
        </mxCell>
        <mxCell id="mP5TZMLMc9r4H7aM5vnd-69" value="Data Analyst" style="rounded=0;whiteSpace=wrap;html=1;" parent="mP5TZMLMc9r4H7aM5vnd-64" vertex="1">
          <mxGeometry x="540" y="110" width="120" height="40" as="geometry" />
        </mxCell>
        <mxCell id="mP5TZMLMc9r4H7aM5vnd-70" value="Robin" style="rounded=0;whiteSpace=wrap;html=1;" parent="mP5TZMLMc9r4H7aM5vnd-64" vertex="1">
          <mxGeometry x="80" y="160" width="100" height="20" as="geometry" />
        </mxCell>
        <mxCell id="mP5TZMLMc9r4H7aM5vnd-71" value="Luigi" style="rounded=0;whiteSpace=wrap;html=1;" parent="mP5TZMLMc9r4H7aM5vnd-64" vertex="1">
          <mxGeometry x="80" y="200" width="100" height="20" as="geometry" />
        </mxCell>
        <mxCell id="mP5TZMLMc9r4H7aM5vnd-72" value="Lucas" style="rounded=0;whiteSpace=wrap;html=1;" parent="mP5TZMLMc9r4H7aM5vnd-64" vertex="1">
          <mxGeometry x="80" y="240" width="100" height="20" as="geometry" />
        </mxCell>
        <mxCell id="mP5TZMLMc9r4H7aM5vnd-73" value="Theo" style="rounded=0;whiteSpace=wrap;html=1;" parent="mP5TZMLMc9r4H7aM5vnd-64" vertex="1">
          <mxGeometry x="240" y="160" width="100" height="20" as="geometry" />
        </mxCell>
        <mxCell id="mP5TZMLMc9r4H7aM5vnd-74" value="Luigi" style="rounded=0;whiteSpace=wrap;html=1;" parent="mP5TZMLMc9r4H7aM5vnd-64" vertex="1">
          <mxGeometry x="240" y="200" width="100" height="20" as="geometry" />
        </mxCell>
        <mxCell id="mP5TZMLMc9r4H7aM5vnd-75" value="Thomas" style="rounded=0;whiteSpace=wrap;html=1;" parent="mP5TZMLMc9r4H7aM5vnd-64" vertex="1">
          <mxGeometry x="240" y="240" width="100" height="20" as="geometry" />
        </mxCell>
        <mxCell id="mP5TZMLMc9r4H7aM5vnd-76" value="Robin" style="rounded=0;whiteSpace=wrap;html=1;" parent="mP5TZMLMc9r4H7aM5vnd-64" vertex="1">
          <mxGeometry x="410" y="160" width="100" height="20" as="geometry" />
        </mxCell>
        <mxCell id="mP5TZMLMc9r4H7aM5vnd-77" value="Lucas" style="rounded=0;whiteSpace=wrap;html=1;" parent="mP5TZMLMc9r4H7aM5vnd-64" vertex="1">
          <mxGeometry x="410" y="200" width="100" height="20" as="geometry" />
        </mxCell>
        <mxCell id="mP5TZMLMc9r4H7aM5vnd-78" value="Thomas" style="rounded=0;whiteSpace=wrap;html=1;" parent="mP5TZMLMc9r4H7aM5vnd-64" vertex="1">
          <mxGeometry x="410" y="240" width="100" height="20" as="geometry" />
        </mxCell>
        <mxCell id="mP5TZMLMc9r4H7aM5vnd-79" value="Robin" style="rounded=0;whiteSpace=wrap;html=1;" parent="mP5TZMLMc9r4H7aM5vnd-64" vertex="1">
          <mxGeometry x="564" y="160" width="100" height="20" as="geometry" />
        </mxCell>
        <mxCell id="mP5TZMLMc9r4H7aM5vnd-81" value="Thomas" style="rounded=0;whiteSpace=wrap;html=1;" parent="mP5TZMLMc9r4H7aM5vnd-64" vertex="1">
          <mxGeometry x="564" y="200" width="100" height="20" as="geometry" />
        </mxCell>
        <mxCell id="yDspLAjavj_7Si0UfZUu-72" value="Documentation" style="rounded=1;whiteSpace=wrap;html=1;fillColor=#3399FF;" parent="1" vertex="1">
          <mxGeometry x="-1030" y="160" width="120" height="80" as="geometry" />
        </mxCell>
        <mxCell id="yDspLAjavj_7Si0UfZUu-73" value="Gantt" style="rounded=1;whiteSpace=wrap;html=1;fillColor=#99CCFF;" parent="1" vertex="1">
          <mxGeometry x="-1330" y="280" width="120" height="80" as="geometry" />
        </mxCell>
        <mxCell id="yDspLAjavj_7Si0UfZUu-74" value="Project charter" style="rounded=1;whiteSpace=wrap;html=1;fillColor=#99CCFF;" parent="1" vertex="1">
          <mxGeometry x="-730" y="280" width="120" height="80" as="geometry" />
        </mxCell>
        <mxCell id="yDspLAjavj_7Si0UfZUu-75" value="Risk Matrix" style="rounded=1;whiteSpace=wrap;html=1;fillColor=#99CCFF;" parent="1" vertex="1">
          <mxGeometry x="-530" y="280" width="120" height="80" as="geometry" />
        </mxCell>
        <mxCell id="yDspLAjavj_7Si0UfZUu-76" value="OBS" style="rounded=1;whiteSpace=wrap;html=1;fillColor=#99CCFF;" parent="1" vertex="1">
          <mxGeometry x="-1130" y="280" width="120" height="80" as="geometry" />
        </mxCell>
        <mxCell id="yDspLAjavj_7Si0UfZUu-77" value="WBS" style="rounded=1;whiteSpace=wrap;html=1;fillColor=#99CCFF;" parent="1" vertex="1">
          <mxGeometry x="-1530" y="280" width="120" height="80" as="geometry" />
        </mxCell>
        <mxCell id="yDspLAjavj_7Si0UfZUu-78" value="RACI" style="rounded=1;whiteSpace=wrap;html=1;fillColor=#99CCFF;" parent="1" vertex="1">
          <mxGeometry x="-930" y="280" width="120" height="80" as="geometry" />
        </mxCell>
        <mxCell id="yDspLAjavj_7Si0UfZUu-79" value="Task identification" style="rounded=1;whiteSpace=wrap;html=1;fillColor=#CCE5FF;" parent="1" vertex="1">
          <mxGeometry x="-1510" y="380" width="120" height="40" as="geometry" />
        </mxCell>
        <mxCell id="yDspLAjavj_7Si0UfZUu-80" value="Task detailing" style="rounded=1;whiteSpace=wrap;html=1;fillColor=#CCE5FF;" parent="1" vertex="1">
          <mxGeometry x="-1510" y="440" width="120" height="40" as="geometry" />
        </mxCell>
        <mxCell id="yDspLAjavj_7Si0UfZUu-81" value="Time Estimation" style="rounded=1;whiteSpace=wrap;html=1;fillColor=#CCE5FF;" parent="1" vertex="1">
          <mxGeometry x="-1310" y="380" width="120" height="40" as="geometry" />
        </mxCell>
        <mxCell id="yDspLAjavj_7Si0UfZUu-82" value="Dependencies Identification" style="rounded=1;whiteSpace=wrap;html=1;fillColor=#CCE5FF;" parent="1" vertex="1">
          <mxGeometry x="-1310" y="440" width="120" height="40" as="geometry" />
        </mxCell>
        <mxCell id="yDspLAjavj_7Si0UfZUu-83" value="Order Identification" style="rounded=1;whiteSpace=wrap;html=1;fillColor=#CCE5FF;" parent="1" vertex="1">
          <mxGeometry x="-1310" y="500" width="120" height="40" as="geometry" />
        </mxCell>
        <mxCell id="yDspLAjavj_7Si0UfZUu-84" value="Skill Estimation" style="rounded=1;whiteSpace=wrap;html=1;fillColor=#CCE5FF;" parent="1" vertex="1">
          <mxGeometry x="-1107" y="380" width="120" height="40" as="geometry" />
        </mxCell>
        <mxCell id="yDspLAjavj_7Si0UfZUu-85" value="Task Attribution" style="rounded=1;whiteSpace=wrap;html=1;fillColor=#CCE5FF;" parent="1" vertex="1">
          <mxGeometry x="-1107" y="440" width="120" height="40" as="geometry" />
        </mxCell>
        <mxCell id="yDspLAjavj_7Si0UfZUu-86" value="Merging WBS and OBS" style="rounded=1;whiteSpace=wrap;html=1;fillColor=#CCE5FF;" parent="1" vertex="1">
          <mxGeometry x="-910" y="380" width="120" height="40" as="geometry" />
        </mxCell>
        <mxCell id="yDspLAjavj_7Si0UfZUu-87" value="Detailing task responsabilities" style="rounded=1;whiteSpace=wrap;html=1;fillColor=#CCE5FF;" parent="1" vertex="1">
          <mxGeometry x="-910" y="440" width="120" height="40" as="geometry" />
        </mxCell>
        <mxCell id="yDspLAjavj_7Si0UfZUu-88" value="Project boundaries Identification&amp;nbsp;" style="rounded=1;whiteSpace=wrap;html=1;fillColor=#CCE5FF;" parent="1" vertex="1">
          <mxGeometry x="-710" y="380" width="120" height="40" as="geometry" />
        </mxCell>
        <mxCell id="yDspLAjavj_7Si0UfZUu-89" value="Risk Identification" style="rounded=1;whiteSpace=wrap;html=1;fillColor=#CCE5FF;" parent="1" vertex="1">
          <mxGeometry x="-510" y="380" width="120" height="40" as="geometry" />
        </mxCell>
        <mxCell id="yDspLAjavj_7Si0UfZUu-90" value="Risk Ordering" style="rounded=1;whiteSpace=wrap;html=1;fillColor=#CCE5FF;" parent="1" vertex="1">
          <mxGeometry x="-510" y="440" width="120" height="40" as="geometry" />
        </mxCell>
        <mxCell id="yDspLAjavj_7Si0UfZUu-91" value="Envisioned Solutions" style="rounded=1;whiteSpace=wrap;html=1;fillColor=#CCE5FF;" parent="1" vertex="1">
          <mxGeometry x="-510" y="500" width="120" height="40" as="geometry" />
        </mxCell>
        <mxCell id="yDspLAjavj_7Si0UfZUu-92" value="Research" style="rounded=1;whiteSpace=wrap;html=1;fillColor=#00CC00;" parent="1" vertex="1">
          <mxGeometry x="290" y="160" width="120" height="80" as="geometry" />
        </mxCell>
        <mxCell id="yDspLAjavj_7Si0UfZUu-93" value="Existing Tech." style="rounded=1;whiteSpace=wrap;html=1;fillColor=#66FF66;" parent="1" vertex="1">
          <mxGeometry x="-210" y="280" width="120" height="80" as="geometry" />
        </mxCell>
        <mxCell id="yDspLAjavj_7Si0UfZUu-94" value="Dev. Tech." style="rounded=1;whiteSpace=wrap;html=1;fillColor=#66FF66;" parent="1" vertex="1">
          <mxGeometry x="-10" y="280" width="120" height="80" as="geometry" />
        </mxCell>
        <mxCell id="yDspLAjavj_7Si0UfZUu-95" value="Data Set" style="rounded=1;whiteSpace=wrap;html=1;fillColor=#66FF66;" parent="1" vertex="1">
          <mxGeometry x="190" y="280" width="120" height="80" as="geometry" />
        </mxCell>
        <mxCell id="yDspLAjavj_7Si0UfZUu-96" value="AI Model Scan" style="rounded=1;whiteSpace=wrap;html=1;fillColor=#66FF66;" parent="1" vertex="1">
          <mxGeometry x="390" y="280" width="120" height="80" as="geometry" />
        </mxCell>
        <mxCell id="yDspLAjavj_7Si0UfZUu-97" value="Profiling" style="rounded=1;whiteSpace=wrap;html=1;fillColor=#66FF66;" parent="1" vertex="1">
          <mxGeometry x="590" y="280" width="120" height="80" as="geometry" />
        </mxCell>
        <mxCell id="yDspLAjavj_7Si0UfZUu-98" value="Location" style="rounded=1;whiteSpace=wrap;html=1;fillColor=#66FF66;" parent="1" vertex="1">
          <mxGeometry x="790" y="280" width="120" height="80" as="geometry" />
        </mxCell>
        <mxCell id="yDspLAjavj_7Si0UfZUu-99" value="Comparition to our needs" style="rounded=1;whiteSpace=wrap;html=1;fillColor=#CCFFCC;" parent="1" vertex="1">
          <mxGeometry x="-190" y="560" width="120" height="40" as="geometry" />
        </mxCell>
        <mxCell id="yDspLAjavj_7Si0UfZUu-100" value="Looking for existing Art Application" style="rounded=1;whiteSpace=wrap;html=1;fillColor=#CCFFCC;" parent="1" vertex="1">
          <mxGeometry x="-190" y="380" width="120" height="40" as="geometry" />
        </mxCell>
        <mxCell id="yDspLAjavj_7Si0UfZUu-101" value="Artivive" style="rounded=1;whiteSpace=wrap;html=1;fillColor=#FFFFFF;" parent="1" vertex="1">
          <mxGeometry x="-170" y="440" width="120" height="40" as="geometry" />
        </mxCell>
        <mxCell id="yDspLAjavj_7Si0UfZUu-102" value="Smartify" style="rounded=1;whiteSpace=wrap;html=1;fillColor=#FFFFFF;" parent="1" vertex="1">
          <mxGeometry x="-170" y="500" width="120" height="40" as="geometry" />
        </mxCell>
        <mxCell id="yDspLAjavj_7Si0UfZUu-103" value="Programation Tech." style="rounded=1;whiteSpace=wrap;html=1;fillColor=#CCFFCC;" parent="1" vertex="1">
          <mxGeometry x="10" y="380" width="120" height="40" as="geometry" />
        </mxCell>
        <mxCell id="yDspLAjavj_7Si0UfZUu-104" value="Data Management Tech." style="rounded=1;whiteSpace=wrap;html=1;fillColor=#CCFFCC;" parent="1" vertex="1">
          <mxGeometry x="10" y="560" width="120" height="40" as="geometry" />
        </mxCell>
        <mxCell id="yDspLAjavj_7Si0UfZUu-105" value="Flutter" style="rounded=1;whiteSpace=wrap;html=1;fillColor=#FFFFFF;" parent="1" vertex="1">
          <mxGeometry x="30" y="440" width="120" height="40" as="geometry" />
        </mxCell>
        <mxCell id="yDspLAjavj_7Si0UfZUu-106" value="ReactNative" style="rounded=1;whiteSpace=wrap;html=1;fillColor=#FFFFFF;" parent="1" vertex="1">
          <mxGeometry x="30" y="500" width="120" height="40" as="geometry" />
        </mxCell>
        <mxCell id="yDspLAjavj_7Si0UfZUu-107" value="FireBase Auth" style="rounded=1;whiteSpace=wrap;html=1;fillColor=#FFFFFF;" parent="1" vertex="1">
          <mxGeometry x="30" y="620" width="120" height="40" as="geometry" />
        </mxCell>
        <mxCell id="yDspLAjavj_7Si0UfZUu-108" value="FireBase FireStore" style="rounded=1;whiteSpace=wrap;html=1;fillColor=#FFFFFF;" parent="1" vertex="1">
          <mxGeometry x="30" y="680" width="120" height="40" as="geometry" />
        </mxCell>
        <mxCell id="yDspLAjavj_7Si0UfZUu-109" value="Hugging Face" style="rounded=1;whiteSpace=wrap;html=1;fillColor=#CCFFCC;" parent="1" vertex="1">
          <mxGeometry x="210" y="380" width="120" height="40" as="geometry" />
        </mxCell>
        <mxCell id="yDspLAjavj_7Si0UfZUu-110" value="WikiArt" style="rounded=1;whiteSpace=wrap;html=1;fillColor=#FFFFFF;" parent="1" vertex="1">
          <mxGeometry x="230" y="440" width="120" height="40" as="geometry" />
        </mxCell>
        <mxCell id="yDspLAjavj_7Si0UfZUu-111" value="WikiArtFull" style="rounded=1;whiteSpace=wrap;html=1;fillColor=#FFFFFF;" parent="1" vertex="1">
          <mxGeometry x="230" y="500" width="120" height="40" as="geometry" />
        </mxCell>
        <mxCell id="yDspLAjavj_7Si0UfZUu-112" value="Other" style="rounded=1;whiteSpace=wrap;html=1;fillColor=#CCFFCC;" parent="1" vertex="1">
          <mxGeometry x="210" y="560" width="120" height="40" as="geometry" />
        </mxCell>
        <mxCell id="yDspLAjavj_7Si0UfZUu-113" value="Joconde DataSet" style="rounded=1;whiteSpace=wrap;html=1;fillColor=#FFFFFF;" parent="1" vertex="1">
          <mxGeometry x="230" y="620" width="120" height="40" as="geometry" />
        </mxCell>
        <mxCell id="yDspLAjavj_7Si0UfZUu-114" value="Model" style="rounded=1;whiteSpace=wrap;html=1;fillColor=#CCFFCC;" parent="1" vertex="1">
          <mxGeometry x="410" y="380" width="120" height="40" as="geometry" />
        </mxCell>
        <mxCell id="yDspLAjavj_7Si0UfZUu-116" value="Resnet18" style="rounded=1;whiteSpace=wrap;html=1;fillColor=#FFFFFF;" parent="1" vertex="1">
          <mxGeometry x="430" y="440" width="120" height="40" as="geometry" />
        </mxCell>
        <mxCell id="yDspLAjavj_7Si0UfZUu-117" value="ModelNetV2&lt;span style=&quot;color: rgba(0, 0, 0, 0); font-family: monospace; font-size: 0px; text-align: start; text-wrap: nowrap;&quot;&gt;%3CmxGraphModel%3E%3Croot%3E%3CmxCell%20id%3D%220%22%2F%3E%3CmxCell%20id%3D%221%22%20parent%3D%220%22%2F%3E%3CmxCell%20id%3D%222%22%20value%3D%22Resnet18%22%20style%3D%22rounded%3D1%3BwhiteSpace%3Dwrap%3Bhtml%3D1%3BfillColor%3D%239AC7BF%3B%22%20vertex%3D%221%22%20parent%3D%221%22%3E%3CmxGeometry%20x%3D%22400%22%20y%3D%222040%22%20width%3D%22120%22%20height%3D%2240%22%20as%3D%22geometry%22%2F%3E%3C%2FmxCell%3E%3C%2Froot%3E%3C%2FmxGraphModel%3EV&lt;/span&gt;" style="rounded=1;whiteSpace=wrap;html=1;fillColor=#FFFFFF;" parent="1" vertex="1">
          <mxGeometry x="430" y="500" width="120" height="40" as="geometry" />
        </mxCell>
        <mxCell id="yDspLAjavj_7Si0UfZUu-120" value="AI Profiling" style="rounded=1;whiteSpace=wrap;html=1;fillColor=#CCFFCC;" parent="1" vertex="1">
          <mxGeometry x="610" y="380" width="120" height="40" as="geometry" />
        </mxCell>
        <mxCell id="yDspLAjavj_7Si0UfZUu-121" value="Score Profiling" style="rounded=1;whiteSpace=wrap;html=1;fillColor=#CCFFCC;" parent="1" vertex="1">
          <mxGeometry x="610" y="440" width="120" height="40" as="geometry" />
        </mxCell>
        <mxCell id="yDspLAjavj_7Si0UfZUu-123" value="Location API" style="rounded=1;whiteSpace=wrap;html=1;fillColor=#CCFFCC;" parent="1" vertex="1">
          <mxGeometry x="810" y="380" width="120" height="40" as="geometry" />
        </mxCell>
        <mxCell id="yDspLAjavj_7Si0UfZUu-124" value="Google map" style="rounded=1;whiteSpace=wrap;html=1;fillColor=#FFFFFF;" parent="1" vertex="1">
          <mxGeometry x="830" y="440" width="120" height="40" as="geometry" />
        </mxCell>
        <mxCell id="yDspLAjavj_7Si0UfZUu-125" value="Development" style="rounded=1;whiteSpace=wrap;html=1;fillColor=#FFB366;" parent="1" vertex="1">
          <mxGeometry x="2310" y="160" width="120" height="80" as="geometry" />
        </mxCell>
        <mxCell id="yDspLAjavj_7Si0UfZUu-126" value="Painting Scan" style="rounded=1;whiteSpace=wrap;html=1;fillColor=#FFCC99;" parent="1" vertex="1">
          <mxGeometry x="1110" y="280" width="120" height="80" as="geometry" />
        </mxCell>
        <mxCell id="yDspLAjavj_7Si0UfZUu-127" value="DataBase Management" style="rounded=1;whiteSpace=wrap;html=1;fillColor=#FFCC99;" parent="1" vertex="1">
          <mxGeometry x="1310" y="280" width="120" height="80" as="geometry" />
        </mxCell>
        <mxCell id="yDspLAjavj_7Si0UfZUu-128" value="FrontEnd" style="rounded=1;whiteSpace=wrap;html=1;fillColor=#FFCC99;" parent="1" vertex="1">
          <mxGeometry x="1510" y="280" width="120" height="80" as="geometry" />
        </mxCell>
        <mxCell id="yDspLAjavj_7Si0UfZUu-129" value="Authentification System" style="rounded=1;whiteSpace=wrap;html=1;fillColor=#FFCC99;" parent="1" vertex="1">
          <mxGeometry x="1710" y="280" width="120" height="80" as="geometry" />
        </mxCell>
        <mxCell id="yDspLAjavj_7Si0UfZUu-130" value="Architecture Definition" style="rounded=1;whiteSpace=wrap;html=1;fillColor=#FFCC99;" parent="1" vertex="1">
          <mxGeometry x="1910" y="280" width="120" height="80" as="geometry" />
        </mxCell>
        <mxCell id="yDspLAjavj_7Si0UfZUu-131" value="Recommendation" style="rounded=1;whiteSpace=wrap;html=1;fillColor=#FFCC99;" parent="1" vertex="1">
          <mxGeometry x="2110" y="280" width="120" height="80" as="geometry" />
        </mxCell>
        <mxCell id="yDspLAjavj_7Si0UfZUu-132" value="Elaborating Profiling" style="rounded=1;whiteSpace=wrap;html=1;fillColor=#FFCC99;" parent="1" vertex="1">
          <mxGeometry x="2310" y="280" width="120" height="80" as="geometry" />
        </mxCell>
        <mxCell id="yDspLAjavj_7Si0UfZUu-133" value="Artedex" style="rounded=1;whiteSpace=wrap;html=1;fillColor=#FFCC99;" parent="1" vertex="1">
          <mxGeometry x="2510" y="280" width="120" height="80" as="geometry" />
        </mxCell>
        <mxCell id="yDspLAjavj_7Si0UfZUu-134" value="Location" style="rounded=1;whiteSpace=wrap;html=1;fillColor=#FFCC99;" parent="1" vertex="1">
          <mxGeometry x="2710" y="280" width="120" height="80" as="geometry" />
        </mxCell>
        <mxCell id="yDspLAjavj_7Si0UfZUu-135" value="Deployment" style="rounded=1;whiteSpace=wrap;html=1;fillColor=#FFCC99;" parent="1" vertex="1">
          <mxGeometry x="2910" y="280" width="120" height="80" as="geometry" />
        </mxCell>
        <mxCell id="yDspLAjavj_7Si0UfZUu-136" value="Community" style="rounded=1;whiteSpace=wrap;html=1;fillColor=#FFCC99;" parent="1" vertex="1">
          <mxGeometry x="3310" y="280" width="120" height="80" as="geometry" />
        </mxCell>
        <mxCell id="yDspLAjavj_7Si0UfZUu-137" value="Advanced Gamified" style="rounded=1;whiteSpace=wrap;html=1;fillColor=#FFCC99;" parent="1" vertex="1">
          <mxGeometry x="3110" y="280" width="120" height="80" as="geometry" />
        </mxCell>
        <mxCell id="yDspLAjavj_7Si0UfZUu-138" value="Partner Museum" style="rounded=1;whiteSpace=wrap;html=1;fillColor=#FFCC99;" parent="1" vertex="1">
          <mxGeometry x="3510" y="280" width="120" height="80" as="geometry" />
        </mxCell>
        <mxCell id="yDspLAjavj_7Si0UfZUu-139" value="Image Embedding" style="rounded=1;whiteSpace=wrap;html=1;fillColor=#FFE6CC;" parent="1" vertex="1">
          <mxGeometry x="1130" y="380" width="120" height="40" as="geometry" />
        </mxCell>
        <mxCell id="yDspLAjavj_7Si0UfZUu-140" value="" style="endArrow=classic;html=1;rounded=0;entryX=0;entryY=0.5;entryDx=0;entryDy=0;" parent="1" target="yDspLAjavj_7Si0UfZUu-79" edge="1">
          <mxGeometry width="50" height="50" relative="1" as="geometry">
            <mxPoint x="-1520" y="360" as="sourcePoint" />
            <mxPoint x="-1520" y="460" as="targetPoint" />
            <Array as="points">
              <mxPoint x="-1520" y="400" />
            </Array>
          </mxGeometry>
        </mxCell>
        <mxCell id="yDspLAjavj_7Si0UfZUu-141" value="" style="endArrow=classic;html=1;rounded=0;entryX=0;entryY=0.5;entryDx=0;entryDy=0;fillColor=#CCCCCC;" parent="1" edge="1">
          <mxGeometry width="50" height="50" relative="1" as="geometry">
            <mxPoint x="-1520" y="400" as="sourcePoint" />
            <mxPoint x="-1510" y="460" as="targetPoint" />
            <Array as="points">
              <mxPoint x="-1520" y="460" />
            </Array>
          </mxGeometry>
        </mxCell>
        <mxCell id="g3Adtyv9L0ec4cViNflO-1" value="" style="endArrow=classic;html=1;rounded=0;entryX=0;entryY=0.5;entryDx=0;entryDy=0;" parent="1" edge="1">
          <mxGeometry width="50" height="50" relative="1" as="geometry">
            <mxPoint x="-1320" y="360" as="sourcePoint" />
            <mxPoint x="-1310" y="400" as="targetPoint" />
            <Array as="points">
              <mxPoint x="-1320" y="400" />
            </Array>
          </mxGeometry>
        </mxCell>
        <mxCell id="g3Adtyv9L0ec4cViNflO-2" value="" style="endArrow=classic;html=1;rounded=0;entryX=0;entryY=0.5;entryDx=0;entryDy=0;fillColor=#CCE5FF;" parent="1" edge="1">
          <mxGeometry width="50" height="50" relative="1" as="geometry">
            <mxPoint x="-1320" y="400" as="sourcePoint" />
            <mxPoint x="-1310" y="460" as="targetPoint" />
            <Array as="points">
              <mxPoint x="-1320" y="460" />
            </Array>
          </mxGeometry>
        </mxCell>
        <mxCell id="g3Adtyv9L0ec4cViNflO-3" value="" style="endArrow=classic;html=1;rounded=0;entryX=0;entryY=0.5;entryDx=0;entryDy=0;fillColor=#CCE5FF;" parent="1" edge="1">
          <mxGeometry width="50" height="50" relative="1" as="geometry">
            <mxPoint x="-1320" y="460" as="sourcePoint" />
            <mxPoint x="-1310" y="520" as="targetPoint" />
            <Array as="points">
              <mxPoint x="-1320" y="520" />
            </Array>
          </mxGeometry>
        </mxCell>
        <mxCell id="g3Adtyv9L0ec4cViNflO-4" value="" style="endArrow=classic;html=1;rounded=0;entryX=0;entryY=0.5;entryDx=0;entryDy=0;" parent="1" edge="1">
          <mxGeometry width="50" height="50" relative="1" as="geometry">
            <mxPoint x="-1117" y="360" as="sourcePoint" />
            <mxPoint x="-1107" y="400" as="targetPoint" />
            <Array as="points">
              <mxPoint x="-1117" y="400" />
            </Array>
          </mxGeometry>
        </mxCell>
        <mxCell id="g3Adtyv9L0ec4cViNflO-5" value="" style="endArrow=classic;html=1;rounded=0;entryX=0;entryY=0.5;entryDx=0;entryDy=0;fillColor=#CCE5FF;" parent="1" edge="1">
          <mxGeometry width="50" height="50" relative="1" as="geometry">
            <mxPoint x="-1117" y="400" as="sourcePoint" />
            <mxPoint x="-1107" y="460" as="targetPoint" />
            <Array as="points">
              <mxPoint x="-1117" y="460" />
            </Array>
          </mxGeometry>
        </mxCell>
        <mxCell id="g3Adtyv9L0ec4cViNflO-6" value="" style="endArrow=classic;html=1;rounded=0;entryX=0;entryY=0.5;entryDx=0;entryDy=0;" parent="1" edge="1">
          <mxGeometry width="50" height="50" relative="1" as="geometry">
            <mxPoint x="-920" y="360" as="sourcePoint" />
            <mxPoint x="-910" y="400" as="targetPoint" />
            <Array as="points">
              <mxPoint x="-920" y="400" />
            </Array>
          </mxGeometry>
        </mxCell>
        <mxCell id="g3Adtyv9L0ec4cViNflO-7" value="" style="endArrow=classic;html=1;rounded=0;entryX=0;entryY=0.5;entryDx=0;entryDy=0;fillColor=#CCE5FF;" parent="1" edge="1">
          <mxGeometry width="50" height="50" relative="1" as="geometry">
            <mxPoint x="-920" y="400" as="sourcePoint" />
            <mxPoint x="-910" y="460" as="targetPoint" />
            <Array as="points">
              <mxPoint x="-920" y="460" />
            </Array>
          </mxGeometry>
        </mxCell>
        <mxCell id="g3Adtyv9L0ec4cViNflO-8" value="" style="endArrow=classic;html=1;rounded=0;entryX=0;entryY=0.5;entryDx=0;entryDy=0;" parent="1" edge="1">
          <mxGeometry width="50" height="50" relative="1" as="geometry">
            <mxPoint x="-720" y="360" as="sourcePoint" />
            <mxPoint x="-710" y="400" as="targetPoint" />
            <Array as="points">
              <mxPoint x="-720" y="400" />
            </Array>
          </mxGeometry>
        </mxCell>
        <mxCell id="g3Adtyv9L0ec4cViNflO-9" value="" style="endArrow=classic;html=1;rounded=0;entryX=0;entryY=0.5;entryDx=0;entryDy=0;" parent="1" edge="1">
          <mxGeometry width="50" height="50" relative="1" as="geometry">
            <mxPoint x="-520" y="360" as="sourcePoint" />
            <mxPoint x="-510" y="400" as="targetPoint" />
            <Array as="points">
              <mxPoint x="-520" y="400" />
            </Array>
          </mxGeometry>
        </mxCell>
        <mxCell id="g3Adtyv9L0ec4cViNflO-10" value="" style="endArrow=classic;html=1;rounded=0;entryX=0;entryY=0.5;entryDx=0;entryDy=0;fillColor=#CCE5FF;" parent="1" edge="1">
          <mxGeometry width="50" height="50" relative="1" as="geometry">
            <mxPoint x="-520" y="400" as="sourcePoint" />
            <mxPoint x="-510" y="460" as="targetPoint" />
            <Array as="points">
              <mxPoint x="-520" y="460" />
            </Array>
          </mxGeometry>
        </mxCell>
        <mxCell id="g3Adtyv9L0ec4cViNflO-11" value="" style="endArrow=classic;html=1;rounded=0;entryX=0;entryY=0.5;entryDx=0;entryDy=0;fillColor=#CCE5FF;" parent="1" edge="1">
          <mxGeometry width="50" height="50" relative="1" as="geometry">
            <mxPoint x="-520" y="460" as="sourcePoint" />
            <mxPoint x="-510" y="520" as="targetPoint" />
            <Array as="points">
              <mxPoint x="-520" y="520" />
            </Array>
          </mxGeometry>
        </mxCell>
        <mxCell id="g3Adtyv9L0ec4cViNflO-12" value="" style="endArrow=classic;html=1;rounded=0;entryX=0;entryY=0.5;entryDx=0;entryDy=0;" parent="1" edge="1">
          <mxGeometry width="50" height="50" relative="1" as="geometry">
            <mxPoint x="-200" y="360" as="sourcePoint" />
            <mxPoint x="-190" y="400" as="targetPoint" />
            <Array as="points">
              <mxPoint x="-200" y="400" />
            </Array>
          </mxGeometry>
        </mxCell>
        <mxCell id="g3Adtyv9L0ec4cViNflO-14" value="" style="endArrow=classic;html=1;rounded=0;entryX=0;entryY=0.5;entryDx=0;entryDy=0;" parent="1" edge="1">
          <mxGeometry width="50" height="50" relative="1" as="geometry">
            <mxPoint x="-180" y="420" as="sourcePoint" />
            <mxPoint x="-170" y="460" as="targetPoint" />
            <Array as="points">
              <mxPoint x="-180" y="460" />
            </Array>
          </mxGeometry>
        </mxCell>
        <mxCell id="g3Adtyv9L0ec4cViNflO-15" value="" style="endArrow=classic;html=1;rounded=0;entryX=0;entryY=0.5;entryDx=0;entryDy=0;" parent="1" edge="1">
          <mxGeometry width="50" height="50" relative="1" as="geometry">
            <mxPoint x="-180" y="460" as="sourcePoint" />
            <mxPoint x="-170" y="520" as="targetPoint" />
            <Array as="points">
              <mxPoint x="-180" y="520" />
            </Array>
          </mxGeometry>
        </mxCell>
        <mxCell id="g3Adtyv9L0ec4cViNflO-16" value="" style="endArrow=classic;html=1;rounded=0;entryX=0;entryY=0.5;entryDx=0;entryDy=0;" parent="1" edge="1">
          <mxGeometry width="50" height="50" relative="1" as="geometry">
            <mxPoint x="-200" y="400" as="sourcePoint" />
            <mxPoint x="-190" y="580" as="targetPoint" />
            <Array as="points">
              <mxPoint x="-200" y="580" />
            </Array>
          </mxGeometry>
        </mxCell>
        <mxCell id="g3Adtyv9L0ec4cViNflO-17" value="" style="endArrow=classic;html=1;rounded=0;entryX=0;entryY=0.5;entryDx=0;entryDy=0;" parent="1" edge="1">
          <mxGeometry width="50" height="50" relative="1" as="geometry">
            <mxPoint y="360" as="sourcePoint" />
            <mxPoint x="10" y="400" as="targetPoint" />
            <Array as="points">
              <mxPoint y="400" />
            </Array>
          </mxGeometry>
        </mxCell>
        <mxCell id="g3Adtyv9L0ec4cViNflO-18" value="" style="endArrow=classic;html=1;rounded=0;entryX=0;entryY=0.5;entryDx=0;entryDy=0;" parent="1" edge="1">
          <mxGeometry width="50" height="50" relative="1" as="geometry">
            <mxPoint x="20" y="420" as="sourcePoint" />
            <mxPoint x="30" y="460" as="targetPoint" />
            <Array as="points">
              <mxPoint x="20" y="460" />
            </Array>
          </mxGeometry>
        </mxCell>
        <mxCell id="g3Adtyv9L0ec4cViNflO-19" value="" style="endArrow=classic;html=1;rounded=0;entryX=0;entryY=0.5;entryDx=0;entryDy=0;fillColor=#FFFFFF;" parent="1" edge="1">
          <mxGeometry width="50" height="50" relative="1" as="geometry">
            <mxPoint x="20" y="460" as="sourcePoint" />
            <mxPoint x="30" y="520" as="targetPoint" />
            <Array as="points">
              <mxPoint x="20" y="520" />
            </Array>
          </mxGeometry>
        </mxCell>
        <mxCell id="g3Adtyv9L0ec4cViNflO-20" value="" style="endArrow=classic;html=1;rounded=0;entryX=0;entryY=0.5;entryDx=0;entryDy=0;" parent="1" edge="1">
          <mxGeometry width="50" height="50" relative="1" as="geometry">
            <mxPoint y="400" as="sourcePoint" />
            <mxPoint x="10" y="580" as="targetPoint" />
            <Array as="points">
              <mxPoint y="580" />
            </Array>
          </mxGeometry>
        </mxCell>
        <mxCell id="g3Adtyv9L0ec4cViNflO-21" value="" style="endArrow=classic;html=1;rounded=0;entryX=0;entryY=0.5;entryDx=0;entryDy=0;" parent="1" edge="1">
          <mxGeometry width="50" height="50" relative="1" as="geometry">
            <mxPoint x="20" y="600" as="sourcePoint" />
            <mxPoint x="30" y="640" as="targetPoint" />
            <Array as="points">
              <mxPoint x="20" y="640" />
            </Array>
          </mxGeometry>
        </mxCell>
        <mxCell id="g3Adtyv9L0ec4cViNflO-22" value="" style="endArrow=classic;html=1;rounded=0;entryX=0;entryY=0.5;entryDx=0;entryDy=0;" parent="1" edge="1">
          <mxGeometry width="50" height="50" relative="1" as="geometry">
            <mxPoint x="20" y="640" as="sourcePoint" />
            <mxPoint x="30" y="700" as="targetPoint" />
            <Array as="points">
              <mxPoint x="20" y="700" />
            </Array>
          </mxGeometry>
        </mxCell>
        <mxCell id="g3Adtyv9L0ec4cViNflO-23" value="" style="endArrow=classic;html=1;rounded=0;entryX=0;entryY=0.5;entryDx=0;entryDy=0;" parent="1" edge="1">
          <mxGeometry width="50" height="50" relative="1" as="geometry">
            <mxPoint x="200" y="360" as="sourcePoint" />
            <mxPoint x="210" y="400" as="targetPoint" />
            <Array as="points">
              <mxPoint x="200" y="400" />
            </Array>
          </mxGeometry>
        </mxCell>
        <mxCell id="g3Adtyv9L0ec4cViNflO-24" value="" style="endArrow=classic;html=1;rounded=0;entryX=0;entryY=0.5;entryDx=0;entryDy=0;" parent="1" edge="1">
          <mxGeometry width="50" height="50" relative="1" as="geometry">
            <mxPoint x="220" y="420" as="sourcePoint" />
            <mxPoint x="230" y="460" as="targetPoint" />
            <Array as="points">
              <mxPoint x="220" y="460" />
            </Array>
          </mxGeometry>
        </mxCell>
        <mxCell id="g3Adtyv9L0ec4cViNflO-25" value="" style="endArrow=classic;html=1;rounded=0;entryX=0;entryY=0.5;entryDx=0;entryDy=0;fillColor=#FFFFFF;" parent="1" edge="1">
          <mxGeometry width="50" height="50" relative="1" as="geometry">
            <mxPoint x="220" y="460" as="sourcePoint" />
            <mxPoint x="230" y="520" as="targetPoint" />
            <Array as="points">
              <mxPoint x="220" y="520" />
            </Array>
          </mxGeometry>
        </mxCell>
        <mxCell id="g3Adtyv9L0ec4cViNflO-26" value="" style="endArrow=classic;html=1;rounded=0;entryX=0;entryY=0.5;entryDx=0;entryDy=0;" parent="1" edge="1">
          <mxGeometry width="50" height="50" relative="1" as="geometry">
            <mxPoint x="200" y="400" as="sourcePoint" />
            <mxPoint x="210" y="580" as="targetPoint" />
            <Array as="points">
              <mxPoint x="200" y="580" />
            </Array>
          </mxGeometry>
        </mxCell>
        <mxCell id="g3Adtyv9L0ec4cViNflO-27" value="" style="endArrow=classic;html=1;rounded=0;entryX=0;entryY=0.5;entryDx=0;entryDy=0;" parent="1" edge="1">
          <mxGeometry width="50" height="50" relative="1" as="geometry">
            <mxPoint x="220" y="600" as="sourcePoint" />
            <mxPoint x="230" y="640" as="targetPoint" />
            <Array as="points">
              <mxPoint x="220" y="640" />
            </Array>
          </mxGeometry>
        </mxCell>
        <mxCell id="g3Adtyv9L0ec4cViNflO-28" value="" style="endArrow=classic;html=1;rounded=0;entryX=0;entryY=0.5;entryDx=0;entryDy=0;" parent="1" edge="1">
          <mxGeometry width="50" height="50" relative="1" as="geometry">
            <mxPoint x="400" y="360" as="sourcePoint" />
            <mxPoint x="410" y="400" as="targetPoint" />
            <Array as="points">
              <mxPoint x="400" y="400" />
            </Array>
          </mxGeometry>
        </mxCell>
        <mxCell id="g3Adtyv9L0ec4cViNflO-29" value="" style="endArrow=classic;html=1;rounded=0;entryX=0;entryY=0.5;entryDx=0;entryDy=0;" parent="1" edge="1">
          <mxGeometry width="50" height="50" relative="1" as="geometry">
            <mxPoint x="420" y="420" as="sourcePoint" />
            <mxPoint x="430" y="460" as="targetPoint" />
            <Array as="points">
              <mxPoint x="420" y="460" />
            </Array>
          </mxGeometry>
        </mxCell>
        <mxCell id="g3Adtyv9L0ec4cViNflO-30" value="" style="endArrow=classic;html=1;rounded=0;entryX=0;entryY=0.5;entryDx=0;entryDy=0;fillColor=#FFFFFF;" parent="1" edge="1">
          <mxGeometry width="50" height="50" relative="1" as="geometry">
            <mxPoint x="420" y="460" as="sourcePoint" />
            <mxPoint x="430" y="520" as="targetPoint" />
            <Array as="points">
              <mxPoint x="420" y="520" />
            </Array>
          </mxGeometry>
        </mxCell>
        <mxCell id="g3Adtyv9L0ec4cViNflO-31" value="" style="endArrow=classic;html=1;rounded=0;entryX=0;entryY=0.5;entryDx=0;entryDy=0;" parent="1" edge="1">
          <mxGeometry width="50" height="50" relative="1" as="geometry">
            <mxPoint x="600" y="360" as="sourcePoint" />
            <mxPoint x="610" y="400" as="targetPoint" />
            <Array as="points">
              <mxPoint x="600" y="400" />
            </Array>
          </mxGeometry>
        </mxCell>
        <mxCell id="g3Adtyv9L0ec4cViNflO-32" value="" style="endArrow=classic;html=1;rounded=0;entryX=0;entryY=0.5;entryDx=0;entryDy=0;" parent="1" edge="1">
          <mxGeometry width="50" height="50" relative="1" as="geometry">
            <mxPoint x="600" y="400" as="sourcePoint" />
            <mxPoint x="610" y="460" as="targetPoint" />
            <Array as="points">
              <mxPoint x="600" y="460" />
            </Array>
          </mxGeometry>
        </mxCell>
        <mxCell id="g3Adtyv9L0ec4cViNflO-33" value="" style="endArrow=classic;html=1;rounded=0;entryX=0;entryY=0.5;entryDx=0;entryDy=0;" parent="1" edge="1">
          <mxGeometry width="50" height="50" relative="1" as="geometry">
            <mxPoint x="800" y="360" as="sourcePoint" />
            <mxPoint x="810" y="400" as="targetPoint" />
            <Array as="points">
              <mxPoint x="800" y="400" />
            </Array>
          </mxGeometry>
        </mxCell>
        <mxCell id="g3Adtyv9L0ec4cViNflO-35" value="" style="endArrow=classic;html=1;rounded=0;entryX=0;entryY=0.5;entryDx=0;entryDy=0;" parent="1" edge="1">
          <mxGeometry width="50" height="50" relative="1" as="geometry">
            <mxPoint x="820" y="420" as="sourcePoint" />
            <mxPoint x="830" y="460" as="targetPoint" />
            <Array as="points">
              <mxPoint x="820" y="460" />
            </Array>
          </mxGeometry>
        </mxCell>
        <mxCell id="g3Adtyv9L0ec4cViNflO-52" value="Scanning Model" style="rounded=1;whiteSpace=wrap;html=1;fillColor=#FFE6CC;" parent="1" vertex="1">
          <mxGeometry x="1130" y="440" width="120" height="40" as="geometry" />
        </mxCell>
        <mxCell id="g3Adtyv9L0ec4cViNflO-53" value="Setting Auth Rules" style="rounded=1;whiteSpace=wrap;html=1;fillColor=#FFE6CC;" parent="1" vertex="1">
          <mxGeometry x="1730" y="500" width="120" height="40" as="geometry" />
        </mxCell>
        <mxCell id="g3Adtyv9L0ec4cViNflO-54" value="Deploy FireStore for Painting" style="rounded=1;whiteSpace=wrap;html=1;fillColor=#FFE6CC;" parent="1" vertex="1">
          <mxGeometry x="1330" y="380" width="120" height="40" as="geometry" />
        </mxCell>
        <mxCell id="g3Adtyv9L0ec4cViNflO-55" value="Deploy FireStore for User Data" style="rounded=1;whiteSpace=wrap;html=1;fillColor=#FFE6CC;" parent="1" vertex="1">
          <mxGeometry x="1330" y="440" width="120" height="40" as="geometry" />
        </mxCell>
        <mxCell id="g3Adtyv9L0ec4cViNflO-56" value="Linking front to Back" style="rounded=1;whiteSpace=wrap;html=1;fillColor=#FFE6CC;" parent="1" vertex="1">
          <mxGeometry x="1530" y="440" width="120" height="40" as="geometry" />
        </mxCell>
        <mxCell id="g3Adtyv9L0ec4cViNflO-57" value="Designing All Pages" style="rounded=1;whiteSpace=wrap;html=1;fillColor=#FFE6CC;" parent="1" vertex="1">
          <mxGeometry x="1530" y="380" width="120" height="40" as="geometry" />
        </mxCell>
        <mxCell id="g3Adtyv9L0ec4cViNflO-58" value="Registration / Login" style="rounded=1;whiteSpace=wrap;html=1;fillColor=#FFE6CC;" parent="1" vertex="1">
          <mxGeometry x="1730" y="380" width="120" height="40" as="geometry" />
        </mxCell>
        <mxCell id="g3Adtyv9L0ec4cViNflO-60" value="Typage Checking" style="rounded=1;whiteSpace=wrap;html=1;fillColor=#FFFFFF;" parent="1" vertex="1">
          <mxGeometry x="1750" y="440" width="120" height="40" as="geometry" />
        </mxCell>
        <mxCell id="g3Adtyv9L0ec4cViNflO-77" value="Services separation" style="rounded=1;whiteSpace=wrap;html=1;fillColor=#FFE6CC;" parent="1" vertex="1">
          <mxGeometry x="1930" y="380" width="120" height="40" as="geometry" />
        </mxCell>
        <mxCell id="g3Adtyv9L0ec4cViNflO-78" value="Service dependencies&amp;nbsp;" style="rounded=1;whiteSpace=wrap;html=1;fillColor=#FFE6CC;" parent="1" vertex="1">
          <mxGeometry x="1930" y="440" width="120" height="40" as="geometry" />
        </mxCell>
        <mxCell id="g3Adtyv9L0ec4cViNflO-79" value="Score system" style="rounded=1;whiteSpace=wrap;html=1;fillColor=#FFE6CC;" parent="1" vertex="1">
          <mxGeometry x="2130" y="380" width="120" height="40" as="geometry" />
        </mxCell>
        <mxCell id="g3Adtyv9L0ec4cViNflO-80" value="Sort paintings" style="rounded=1;whiteSpace=wrap;html=1;fillColor=#FFE6CC;" parent="1" vertex="1">
          <mxGeometry x="2130" y="440" width="120" height="40" as="geometry" />
        </mxCell>
        <mxCell id="g3Adtyv9L0ec4cViNflO-82" value="Avoid Redundancy" style="rounded=1;whiteSpace=wrap;html=1;fillColor=#FFFFFF;" parent="1" vertex="1">
          <mxGeometry x="2150" y="500" width="120" height="40" as="geometry" />
        </mxCell>
        <mxCell id="g3Adtyv9L0ec4cViNflO-83" value="Follow User Preference" style="rounded=1;whiteSpace=wrap;html=1;fillColor=#FFFFFF;" parent="1" vertex="1">
          <mxGeometry x="2150" y="560" width="120" height="40" as="geometry" />
        </mxCell>
        <mxCell id="g3Adtyv9L0ec4cViNflO-84" value="Score system" style="rounded=1;whiteSpace=wrap;html=1;fillColor=#FFE6CC;" parent="1" vertex="1">
          <mxGeometry x="2330" y="380" width="120" height="40" as="geometry" />
        </mxCell>
        <mxCell id="g3Adtyv9L0ec4cViNflO-85" value="Liked Art Theme" style="rounded=1;whiteSpace=wrap;html=1;fillColor=#FFFFFF;" parent="1" vertex="1">
          <mxGeometry x="2350" y="440" width="120" height="40" as="geometry" />
        </mxCell>
        <mxCell id="g3Adtyv9L0ec4cViNflO-86" value="All Liked Painting" style="rounded=1;whiteSpace=wrap;html=1;fillColor=#FFE6CC;" parent="1" vertex="1">
          <mxGeometry x="2530" y="380" width="120" height="40" as="geometry" />
        </mxCell>
        <mxCell id="g3Adtyv9L0ec4cViNflO-87" value="Sort Painting by categories" style="rounded=1;whiteSpace=wrap;html=1;fillColor=#FFE6CC;" parent="1" vertex="1">
          <mxGeometry x="2530" y="440" width="120" height="40" as="geometry" />
        </mxCell>
        <mxCell id="g3Adtyv9L0ec4cViNflO-88" value="Get User Location" style="rounded=1;whiteSpace=wrap;html=1;fillColor=#FFE6CC;" parent="1" vertex="1">
          <mxGeometry x="2730" y="380" width="120" height="40" as="geometry" />
        </mxCell>
        <mxCell id="g3Adtyv9L0ec4cViNflO-89" value="Get Museum Location" style="rounded=1;whiteSpace=wrap;html=1;fillColor=#FFE6CC;" parent="1" vertex="1">
          <mxGeometry x="2730" y="440" width="120" height="40" as="geometry" />
        </mxCell>
        <mxCell id="g3Adtyv9L0ec4cViNflO-90" value="Google Services" style="rounded=1;whiteSpace=wrap;html=1;fillColor=#FFE6CC;" parent="1" vertex="1">
          <mxGeometry x="2930" y="380" width="120" height="40" as="geometry" />
        </mxCell>
        <mxCell id="g3Adtyv9L0ec4cViNflO-91" value="K8s" style="rounded=1;whiteSpace=wrap;html=1;fillColor=#FFFFFF;" parent="1" vertex="1">
          <mxGeometry x="2950" y="500" width="120" height="40" as="geometry" />
        </mxCell>
        <mxCell id="g3Adtyv9L0ec4cViNflO-92" value="Docker" style="rounded=1;whiteSpace=wrap;html=1;fillColor=#FFFFFF;" parent="1" vertex="1">
          <mxGeometry x="2950" y="440" width="120" height="40" as="geometry" />
        </mxCell>
        <mxCell id="g3Adtyv9L0ec4cViNflO-93" value="Friends" style="rounded=1;whiteSpace=wrap;html=1;fillColor=#FFE6CC;" parent="1" vertex="1">
          <mxGeometry x="3330" y="380" width="120" height="40" as="geometry" />
        </mxCell>
        <mxCell id="g3Adtyv9L0ec4cViNflO-94" value="Ranking" style="rounded=1;whiteSpace=wrap;html=1;fillColor=#FFE6CC;" parent="1" vertex="1">
          <mxGeometry x="3330" y="500" width="120" height="40" as="geometry" />
        </mxCell>
        <mxCell id="g3Adtyv9L0ec4cViNflO-95" value="Share Discovery" style="rounded=1;whiteSpace=wrap;html=1;fillColor=#FFFFFF;" parent="1" vertex="1">
          <mxGeometry x="3350" y="440" width="120" height="40" as="geometry" />
        </mxCell>
        <mxCell id="g3Adtyv9L0ec4cViNflO-96" value="Point system&amp;nbsp;" style="rounded=1;whiteSpace=wrap;html=1;fillColor=#FFFFFF;" parent="1" vertex="1">
          <mxGeometry x="3350" y="560" width="120" height="40" as="geometry" />
        </mxCell>
        <mxCell id="g3Adtyv9L0ec4cViNflO-98" value="Point system" style="rounded=1;whiteSpace=wrap;html=1;fillColor=#FFE6CC;" parent="1" vertex="1">
          <mxGeometry x="3130" y="380" width="120" height="40" as="geometry" />
        </mxCell>
        <mxCell id="g3Adtyv9L0ec4cViNflO-99" value="Badge" style="rounded=1;whiteSpace=wrap;html=1;fillColor=#FFE6CC;" parent="1" vertex="1">
          <mxGeometry x="3130" y="440" width="120" height="40" as="geometry" />
        </mxCell>
        <mxCell id="g3Adtyv9L0ec4cViNflO-100" value="Guide&amp;nbsp;" style="rounded=1;whiteSpace=wrap;html=1;fillColor=#FFE6CC;" parent="1" vertex="1">
          <mxGeometry x="3530" y="380" width="120" height="40" as="geometry" />
        </mxCell>
        <mxCell id="g3Adtyv9L0ec4cViNflO-102" value="" style="endArrow=classic;html=1;rounded=0;entryX=0;entryY=0.5;entryDx=0;entryDy=0;" parent="1" edge="1">
          <mxGeometry width="50" height="50" relative="1" as="geometry">
            <mxPoint x="1120" y="360" as="sourcePoint" />
            <mxPoint x="1130" y="400" as="targetPoint" />
            <Array as="points">
              <mxPoint x="1120" y="400" />
            </Array>
          </mxGeometry>
        </mxCell>
        <mxCell id="g3Adtyv9L0ec4cViNflO-103" value="" style="endArrow=classic;html=1;rounded=0;entryX=0;entryY=0.5;entryDx=0;entryDy=0;" parent="1" edge="1">
          <mxGeometry width="50" height="50" relative="1" as="geometry">
            <mxPoint x="1120" y="400" as="sourcePoint" />
            <mxPoint x="1130" y="460" as="targetPoint" />
            <Array as="points">
              <mxPoint x="1120" y="460" />
            </Array>
          </mxGeometry>
        </mxCell>
        <mxCell id="g3Adtyv9L0ec4cViNflO-104" value="" style="endArrow=classic;html=1;rounded=0;entryX=0;entryY=0.5;entryDx=0;entryDy=0;" parent="1" edge="1">
          <mxGeometry width="50" height="50" relative="1" as="geometry">
            <mxPoint x="1320" y="360" as="sourcePoint" />
            <mxPoint x="1330" y="400" as="targetPoint" />
            <Array as="points">
              <mxPoint x="1320" y="400" />
            </Array>
          </mxGeometry>
        </mxCell>
        <mxCell id="g3Adtyv9L0ec4cViNflO-105" value="" style="endArrow=classic;html=1;rounded=0;entryX=0;entryY=0.5;entryDx=0;entryDy=0;" parent="1" edge="1">
          <mxGeometry width="50" height="50" relative="1" as="geometry">
            <mxPoint x="1320" y="400" as="sourcePoint" />
            <mxPoint x="1330" y="460" as="targetPoint" />
            <Array as="points">
              <mxPoint x="1320" y="460" />
            </Array>
          </mxGeometry>
        </mxCell>
        <mxCell id="g3Adtyv9L0ec4cViNflO-107" value="" style="endArrow=classic;html=1;rounded=0;entryX=0;entryY=0.5;entryDx=0;entryDy=0;" parent="1" edge="1">
          <mxGeometry width="50" height="50" relative="1" as="geometry">
            <mxPoint x="1520" y="360" as="sourcePoint" />
            <mxPoint x="1530" y="400" as="targetPoint" />
            <Array as="points">
              <mxPoint x="1520" y="400" />
            </Array>
          </mxGeometry>
        </mxCell>
        <mxCell id="g3Adtyv9L0ec4cViNflO-108" value="" style="endArrow=classic;html=1;rounded=0;entryX=0;entryY=0.5;entryDx=0;entryDy=0;" parent="1" edge="1">
          <mxGeometry width="50" height="50" relative="1" as="geometry">
            <mxPoint x="1520" y="400" as="sourcePoint" />
            <mxPoint x="1530" y="460" as="targetPoint" />
            <Array as="points">
              <mxPoint x="1520" y="460" />
            </Array>
          </mxGeometry>
        </mxCell>
        <mxCell id="g3Adtyv9L0ec4cViNflO-109" value="" style="endArrow=classic;html=1;rounded=0;entryX=0;entryY=0.5;entryDx=0;entryDy=0;" parent="1" edge="1">
          <mxGeometry width="50" height="50" relative="1" as="geometry">
            <mxPoint x="1720" y="360" as="sourcePoint" />
            <mxPoint x="1730" y="400" as="targetPoint" />
            <Array as="points">
              <mxPoint x="1720" y="400" />
            </Array>
          </mxGeometry>
        </mxCell>
        <mxCell id="g3Adtyv9L0ec4cViNflO-110" value="" style="endArrow=classic;html=1;rounded=0;entryX=0;entryY=0.5;entryDx=0;entryDy=0;" parent="1" edge="1">
          <mxGeometry width="50" height="50" relative="1" as="geometry">
            <mxPoint x="1720" y="400" as="sourcePoint" />
            <mxPoint x="1730" y="520" as="targetPoint" />
            <Array as="points">
              <mxPoint x="1720" y="520" />
            </Array>
          </mxGeometry>
        </mxCell>
        <mxCell id="g3Adtyv9L0ec4cViNflO-111" value="" style="endArrow=classic;html=1;rounded=0;entryX=0;entryY=0.5;entryDx=0;entryDy=0;" parent="1" edge="1">
          <mxGeometry width="50" height="50" relative="1" as="geometry">
            <mxPoint x="1740" y="420" as="sourcePoint" />
            <mxPoint x="1750" y="460" as="targetPoint" />
            <Array as="points">
              <mxPoint x="1740" y="460" />
            </Array>
          </mxGeometry>
        </mxCell>
        <mxCell id="g3Adtyv9L0ec4cViNflO-112" value="" style="endArrow=classic;html=1;rounded=0;entryX=0;entryY=0.5;entryDx=0;entryDy=0;" parent="1" edge="1">
          <mxGeometry width="50" height="50" relative="1" as="geometry">
            <mxPoint x="1920" y="360" as="sourcePoint" />
            <mxPoint x="1930" y="400" as="targetPoint" />
            <Array as="points">
              <mxPoint x="1920" y="400" />
            </Array>
          </mxGeometry>
        </mxCell>
        <mxCell id="g3Adtyv9L0ec4cViNflO-113" value="" style="endArrow=classic;html=1;rounded=0;entryX=0;entryY=0.5;entryDx=0;entryDy=0;" parent="1" edge="1">
          <mxGeometry width="50" height="50" relative="1" as="geometry">
            <mxPoint x="1920" y="400" as="sourcePoint" />
            <mxPoint x="1930" y="460" as="targetPoint" />
            <Array as="points">
              <mxPoint x="1920" y="460" />
            </Array>
          </mxGeometry>
        </mxCell>
        <mxCell id="g3Adtyv9L0ec4cViNflO-114" value="" style="endArrow=classic;html=1;rounded=0;entryX=0;entryY=0.5;entryDx=0;entryDy=0;" parent="1" edge="1">
          <mxGeometry width="50" height="50" relative="1" as="geometry">
            <mxPoint x="2120" y="360" as="sourcePoint" />
            <mxPoint x="2130" y="400" as="targetPoint" />
            <Array as="points">
              <mxPoint x="2120" y="400" />
            </Array>
          </mxGeometry>
        </mxCell>
        <mxCell id="g3Adtyv9L0ec4cViNflO-115" value="" style="endArrow=classic;html=1;rounded=0;entryX=0;entryY=0.5;entryDx=0;entryDy=0;" parent="1" edge="1">
          <mxGeometry width="50" height="50" relative="1" as="geometry">
            <mxPoint x="2120" y="400" as="sourcePoint" />
            <mxPoint x="2130" y="460" as="targetPoint" />
            <Array as="points">
              <mxPoint x="2120" y="460" />
            </Array>
          </mxGeometry>
        </mxCell>
        <mxCell id="g3Adtyv9L0ec4cViNflO-116" value="" style="endArrow=classic;html=1;rounded=0;entryX=0;entryY=0.5;entryDx=0;entryDy=0;" parent="1" edge="1">
          <mxGeometry width="50" height="50" relative="1" as="geometry">
            <mxPoint x="2140" y="480" as="sourcePoint" />
            <mxPoint x="2150" y="520" as="targetPoint" />
            <Array as="points">
              <mxPoint x="2140" y="520" />
            </Array>
          </mxGeometry>
        </mxCell>
        <mxCell id="g3Adtyv9L0ec4cViNflO-117" value="" style="endArrow=classic;html=1;rounded=0;entryX=0;entryY=0.5;entryDx=0;entryDy=0;" parent="1" edge="1">
          <mxGeometry width="50" height="50" relative="1" as="geometry">
            <mxPoint x="2140" y="520" as="sourcePoint" />
            <mxPoint x="2150" y="580" as="targetPoint" />
            <Array as="points">
              <mxPoint x="2140" y="580" />
            </Array>
          </mxGeometry>
        </mxCell>
        <mxCell id="g3Adtyv9L0ec4cViNflO-120" value="" style="endArrow=classic;html=1;rounded=0;entryX=0;entryY=0.5;entryDx=0;entryDy=0;" parent="1" edge="1">
          <mxGeometry width="50" height="50" relative="1" as="geometry">
            <mxPoint x="2320" y="360" as="sourcePoint" />
            <mxPoint x="2330" y="400" as="targetPoint" />
            <Array as="points">
              <mxPoint x="2320" y="400" />
            </Array>
          </mxGeometry>
        </mxCell>
        <mxCell id="g3Adtyv9L0ec4cViNflO-121" value="" style="endArrow=classic;html=1;rounded=0;entryX=0;entryY=0.5;entryDx=0;entryDy=0;" parent="1" edge="1">
          <mxGeometry width="50" height="50" relative="1" as="geometry">
            <mxPoint x="2340" y="420" as="sourcePoint" />
            <mxPoint x="2350" y="460" as="targetPoint" />
            <Array as="points">
              <mxPoint x="2340" y="460" />
            </Array>
          </mxGeometry>
        </mxCell>
        <mxCell id="g3Adtyv9L0ec4cViNflO-122" value="" style="endArrow=classic;html=1;rounded=0;entryX=0;entryY=0.5;entryDx=0;entryDy=0;" parent="1" edge="1">
          <mxGeometry width="50" height="50" relative="1" as="geometry">
            <mxPoint x="2520" y="360" as="sourcePoint" />
            <mxPoint x="2530" y="400" as="targetPoint" />
            <Array as="points">
              <mxPoint x="2520" y="400" />
            </Array>
          </mxGeometry>
        </mxCell>
        <mxCell id="g3Adtyv9L0ec4cViNflO-123" value="" style="endArrow=classic;html=1;rounded=0;entryX=0;entryY=0.5;entryDx=0;entryDy=0;" parent="1" edge="1">
          <mxGeometry width="50" height="50" relative="1" as="geometry">
            <mxPoint x="2520" y="400" as="sourcePoint" />
            <mxPoint x="2530" y="460" as="targetPoint" />
            <Array as="points">
              <mxPoint x="2520" y="460" />
            </Array>
          </mxGeometry>
        </mxCell>
        <mxCell id="g3Adtyv9L0ec4cViNflO-126" value="" style="endArrow=classic;html=1;rounded=0;entryX=0;entryY=0.5;entryDx=0;entryDy=0;" parent="1" edge="1">
          <mxGeometry width="50" height="50" relative="1" as="geometry">
            <mxPoint x="2720" y="360" as="sourcePoint" />
            <mxPoint x="2730" y="400" as="targetPoint" />
            <Array as="points">
              <mxPoint x="2720" y="400" />
            </Array>
          </mxGeometry>
        </mxCell>
        <mxCell id="g3Adtyv9L0ec4cViNflO-127" value="" style="endArrow=classic;html=1;rounded=0;entryX=0;entryY=0.5;entryDx=0;entryDy=0;" parent="1" edge="1">
          <mxGeometry width="50" height="50" relative="1" as="geometry">
            <mxPoint x="2720" y="400" as="sourcePoint" />
            <mxPoint x="2730" y="460" as="targetPoint" />
            <Array as="points">
              <mxPoint x="2720" y="460" />
            </Array>
          </mxGeometry>
        </mxCell>
        <mxCell id="g3Adtyv9L0ec4cViNflO-128" value="" style="endArrow=classic;html=1;rounded=0;entryX=0;entryY=0.5;entryDx=0;entryDy=0;" parent="1" edge="1">
          <mxGeometry width="50" height="50" relative="1" as="geometry">
            <mxPoint x="2940" y="420" as="sourcePoint" />
            <mxPoint x="2950" y="460" as="targetPoint" />
            <Array as="points">
              <mxPoint x="2940" y="460" />
            </Array>
          </mxGeometry>
        </mxCell>
        <mxCell id="g3Adtyv9L0ec4cViNflO-129" value="" style="endArrow=classic;html=1;rounded=0;entryX=0;entryY=0.5;entryDx=0;entryDy=0;" parent="1" edge="1">
          <mxGeometry width="50" height="50" relative="1" as="geometry">
            <mxPoint x="2940" y="460" as="sourcePoint" />
            <mxPoint x="2950" y="520" as="targetPoint" />
            <Array as="points">
              <mxPoint x="2940" y="520" />
            </Array>
          </mxGeometry>
        </mxCell>
        <mxCell id="g3Adtyv9L0ec4cViNflO-130" value="" style="endArrow=classic;html=1;rounded=0;entryX=0;entryY=0.5;entryDx=0;entryDy=0;" parent="1" edge="1">
          <mxGeometry width="50" height="50" relative="1" as="geometry">
            <mxPoint x="2920" y="360" as="sourcePoint" />
            <mxPoint x="2930" y="400" as="targetPoint" />
            <Array as="points">
              <mxPoint x="2920" y="400" />
            </Array>
          </mxGeometry>
        </mxCell>
        <mxCell id="g3Adtyv9L0ec4cViNflO-132" value="" style="endArrow=classic;html=1;rounded=0;entryX=0;entryY=0.5;entryDx=0;entryDy=0;" parent="1" edge="1">
          <mxGeometry width="50" height="50" relative="1" as="geometry">
            <mxPoint x="3120" y="360" as="sourcePoint" />
            <mxPoint x="3130" y="400" as="targetPoint" />
            <Array as="points">
              <mxPoint x="3120" y="400" />
            </Array>
          </mxGeometry>
        </mxCell>
        <mxCell id="g3Adtyv9L0ec4cViNflO-133" value="" style="endArrow=classic;html=1;rounded=0;entryX=0;entryY=0.5;entryDx=0;entryDy=0;" parent="1" edge="1">
          <mxGeometry width="50" height="50" relative="1" as="geometry">
            <mxPoint x="3120" y="400" as="sourcePoint" />
            <mxPoint x="3130" y="460" as="targetPoint" />
            <Array as="points">
              <mxPoint x="3120" y="460" />
            </Array>
          </mxGeometry>
        </mxCell>
        <mxCell id="g3Adtyv9L0ec4cViNflO-134" value="" style="endArrow=classic;html=1;rounded=0;entryX=0;entryY=0.5;entryDx=0;entryDy=0;" parent="1" edge="1">
          <mxGeometry width="50" height="50" relative="1" as="geometry">
            <mxPoint x="3320" y="360" as="sourcePoint" />
            <mxPoint x="3330" y="400" as="targetPoint" />
            <Array as="points">
              <mxPoint x="3320" y="400" />
            </Array>
          </mxGeometry>
        </mxCell>
        <mxCell id="g3Adtyv9L0ec4cViNflO-135" value="" style="endArrow=classic;html=1;rounded=0;entryX=0;entryY=0.5;entryDx=0;entryDy=0;" parent="1" edge="1">
          <mxGeometry width="50" height="50" relative="1" as="geometry">
            <mxPoint x="3320" y="400" as="sourcePoint" />
            <mxPoint x="3330" y="520" as="targetPoint" />
            <Array as="points">
              <mxPoint x="3320" y="520" />
            </Array>
          </mxGeometry>
        </mxCell>
        <mxCell id="g3Adtyv9L0ec4cViNflO-136" value="" style="endArrow=classic;html=1;rounded=0;entryX=0;entryY=0.5;entryDx=0;entryDy=0;" parent="1" edge="1">
          <mxGeometry width="50" height="50" relative="1" as="geometry">
            <mxPoint x="3320" y="360" as="sourcePoint" />
            <mxPoint x="3330" y="400" as="targetPoint" />
            <Array as="points">
              <mxPoint x="3320" y="400" />
            </Array>
          </mxGeometry>
        </mxCell>
        <mxCell id="g3Adtyv9L0ec4cViNflO-139" value="" style="endArrow=classic;html=1;rounded=0;entryX=0;entryY=0.5;entryDx=0;entryDy=0;" parent="1" edge="1">
          <mxGeometry width="50" height="50" relative="1" as="geometry">
            <mxPoint x="3340" y="420" as="sourcePoint" />
            <mxPoint x="3350" y="460" as="targetPoint" />
            <Array as="points">
              <mxPoint x="3340" y="460" />
            </Array>
          </mxGeometry>
        </mxCell>
        <mxCell id="g3Adtyv9L0ec4cViNflO-140" value="" style="endArrow=classic;html=1;rounded=0;entryX=0;entryY=0.5;entryDx=0;entryDy=0;" parent="1" edge="1">
          <mxGeometry width="50" height="50" relative="1" as="geometry">
            <mxPoint x="3340" y="540" as="sourcePoint" />
            <mxPoint x="3350" y="580" as="targetPoint" />
            <Array as="points">
              <mxPoint x="3340" y="580" />
            </Array>
          </mxGeometry>
        </mxCell>
        <mxCell id="g3Adtyv9L0ec4cViNflO-141" value="" style="endArrow=classic;html=1;rounded=0;entryX=0;entryY=0.5;entryDx=0;entryDy=0;" parent="1" edge="1">
          <mxGeometry width="50" height="50" relative="1" as="geometry">
            <mxPoint x="3520" y="360" as="sourcePoint" />
            <mxPoint x="3530" y="400" as="targetPoint" />
            <Array as="points">
              <mxPoint x="3520" y="400" />
            </Array>
          </mxGeometry>
        </mxCell>
      </root>
    </mxGraphModel>
  </diagram>
</mxfile>
